HIERARCHY
ROOT root
{
	OFFSET 0.000000 0.000000 0.000000
	CHANNELS 6 Xposition Yposition Zposition Zrotation Yrotation Xrotation
	JOINT lhip
	{
		OFFSET 0.058581 -0.082280 -0.017664
		CHANNELS 3 Zrotation Yrotation Xrotation
		JOINT lknee
		{
			OFFSET 0.043451 -0.386469 0.008037
			CHANNELS 3 Zrotation Yrotation Xrotation
			JOINT lankle
			{
				OFFSET -0.014790 -0.426874 -0.037428
				CHANNELS 3 Zrotation Yrotation Xrotation
				JOINT ltoe
				{
					OFFSET 0.041054 -0.060286 0.122042
					CHANNELS 3 Zrotation Yrotation Xrotation
					End Site
					{
						OFFSET 0.000000 0.000000 0.000000
					}
				}
			}
		}
	}
	JOINT rhip
	{
		OFFSET -0.060310 -0.090513 -0.013543
		CHANNELS 3 Zrotation Yrotation Xrotation
		JOINT rknee
		{
			OFFSET -0.043257 -0.383688 -0.004843
			CHANNELS 3 Zrotation Yrotation Xrotation
			JOINT rankle
			{
				OFFSET 0.019056 -0.420046 -0.034562
				CHANNELS 3 Zrotation Yrotation Xrotation
				JOINT rtoe
				{
					OFFSET -0.034840 -0.062106 0.130323
					CHANNELS 3 Zrotation Yrotation Xrotation
					End Site
					{
						OFFSET 0.000000 0.000000 0.000000
					}
				}
			}
		}
	}
	JOINT lowerback
	{
		OFFSET 0.004439 0.124404 -0.038385
		CHANNELS 3 Zrotation Yrotation Xrotation
		JOINT upperback
		{
			OFFSET 0.004488 0.137956 0.026820
			CHANNELS 3 Zrotation Yrotation Xrotation
			JOINT chest
			{
				OFFSET -0.002265 0.056032 0.002855
				CHANNELS 3 Zrotation Yrotation Xrotation
				JOINT lowerneck
				{
					OFFSET -0.013390 0.211636 -0.033468
					CHANNELS 3 Zrotation Yrotation Xrotation
					JOINT upperneck
					{
						OFFSET 0.010113 0.088937 0.050410
						CHANNELS 3 Zrotation Yrotation Xrotation
						End Site
						{
							OFFSET 0.000000 0.000000 0.000000
						}
					}
				}
				JOINT lclavicle
				{
					OFFSET 0.071702 0.114000 -0.018898
					CHANNELS 3 Zrotation Yrotation Xrotation
					JOINT lshoulder
					{
						OFFSET 0.122921 0.045205 -0.019046
						CHANNELS 3 Zrotation Yrotation Xrotation
						JOINT lelbow
						{
							OFFSET 0.255332 -0.015649 -0.022946
							CHANNELS 3 Zrotation Yrotation Xrotation
							JOINT lwrist
							{
								OFFSET 0.265709 0.012698 -0.007375
								CHANNELS 3 Zrotation Yrotation Xrotation
								End Site
								{
									OFFSET 0.000000 0.000000 0.000000
								}
							}
						}
					}
				}
				JOINT rclavicle
				{
					OFFSET -0.082954 0.112472 -0.023707
					CHANNELS 3 Zrotation Yrotation Xrotation
					JOINT rshoulder
					{
						OFFSET -0.113228 0.046853 -0.008472
						CHANNELS 3 Zrotation Yrotation Xrotation
						JOINT relbow
						{
							OFFSET -0.260127 -0.014369 -0.031269
							CHANNELS 3 Zrotation Yrotation Xrotation
							JOINT rwrist
							{
								OFFSET -0.269108 0.006794 -0.006027
								CHANNELS 3 Zrotation Yrotation Xrotation
								End Site
								{
									OFFSET 0.000000 0.000000 0.000000
								}
							}
						}
					}
				}
			}
		}
	}
}
MOTION
Frames: 16
Frame Time: 0.033333
-1.531585 0.697927 0.986787 -82.670225 -0.033296 78.420684 -11.903392 0.656251 11.293514 0.805900 -3.351842 6.859074 11.240417 23.552792 -15.195060 0.000000 -0.000000 0.000000 -8.063378 -2.153462 -10.584976 -0.512141 -7.572574 64.601747 8.252158 -4.394396 -1.859042 0.000000 -0.000000 0.000000 -0.171642 -0.282669 4.590783 -0.296024 -1.054530 2.064239 -2.407381 0.787411 2.551012 3.403089 -4.129209 6.536243 4.000626 -6.828964 -3.228009 -20.135757 -2.277681 -1.907718 -55.383919 -9.558069 9.786351 5.750862 -21.387916 7.056171 -6.655387 4.700032 2.865856 18.467238 -0.544711 -2.934692 63.791207 -1.887591 15.502739 -10.193434 31.268635 6.636695 13.790507 -4.155342 -2.804592 
-1.542243 0.694758 0.986818 -81.408752 0.366631 78.280131 -11.594122 0.734343 12.305495 0.534116 -5.609404 7.931610 10.532434 23.138846 -15.086206 0.000000 -0.000000 0.000000 -7.407113 -0.924210 -13.378363 -1.506406 -7.699405 60.761155 6.280341 -7.602407 -6.893585 0.000000 -0.000000 0.000000 -0.240178 -2.009955 5.437414 0.167547 -1.843109 0.791899 -1.997382 -0.547271 3.195626 3.178067 -3.126440 6.915236 3.045645 -4.606667 -3.032516 -20.113155 -1.677590 -1.324729 -55.378435 -10.751909 9.655464 5.568812 -21.408608 7.471033 -6.328389 4.320875 2.669682 17.995340 -1.609911 -3.464404 63.651169 -1.606923 16.192392 -9.782000 30.464118 6.702544 12.549992 -3.458903 -2.118326 
-1.552375 0.692115 0.986808 -80.492087 0.791023 77.998278 -11.051456 1.513987 13.464034 0.759591 -6.847542 8.032139 9.642159 22.638448 -16.148290 0.000000 -0.000000 0.000000 -6.351418 0.416633 -15.484402 -2.252977 -7.004077 55.244960 5.552190 -9.601009 -9.621734 0.000000 -0.000000 0.000000 -0.208140 -3.420625 6.292488 0.450376 -2.418046 0.142750 -1.471385 -1.632837 3.614444 3.112391 -2.143581 6.887076 2.177331 -2.739820 -2.932246 -19.969258 -1.281225 -1.079820 -55.464888 -11.655645 9.763807 5.125049 -21.749592 8.520266 -5.572267 4.047140 1.849070 17.665029 -2.511213 -3.881485 63.216043 -1.434458 16.787193 -9.334728 30.011972 6.697281 10.419113 -2.924490 -2.233999 
-1.562369 0.689441 0.986347 -79.182763 1.044540 77.968909 -10.642440 1.828345 14.211461 0.765934 -7.869438 8.452032 8.682830 21.887310 -17.103806 0.000000 -0.000000 0.000000 -5.501193 1.815899 -16.751123 -2.533203 -5.966236 47.723449 5.333551 -9.989149 -11.263541 0.000000 -0.000000 0.000000 -0.538555 -4.677476 6.654354 0.855524 -3.252554 0.009033 -0.918573 -2.636101 3.822174 2.914544 -1.343091 7.061864 1.739140 -1.022301 -3.142142 -19.796794 -1.374918 -0.666835 -55.814775 -12.425093 9.784524 5.347043 -21.805304 8.628620 -6.058125 3.492937 1.286675 16.998454 -3.084371 -4.258466 63.236918 -1.583980 17.184262 -9.941098 29.579563 6.410509 11.069048 -3.165154 -2.283870 
-1.572922 0.687185 0.985773 -78.001093 1.142932 78.066311 -10.124530 2.206909 14.941084 0.545242 -8.666287 8.770349 7.608790 21.074119 -18.197662 0.000000 -0.000000 0.000000 -4.680211 2.936355 -17.579147 -2.233871 -3.983612 39.637160 5.822293 -9.633274 -11.958409 0.000000 -0.000000 0.000000 -0.875499 -5.548932 6.467519 1.159194 -3.944939 0.440896 -0.548168 -3.571299 4.134281 3.192666 -0.338981 6.767605 1.188272 0.547583 -3.402310 -19.961543 -1.169821 -0.545989 -55.781182 -13.408566 9.888034 5.192486 -21.964067 8.662093 -5.626902 3.175262 1.010224 16.798597 -4.057243 -4.498849 62.962004 -1.464455 17.629644 -10.021981 29.069971 5.691141 8.819414 -2.788988 -2.535099 
-1.584094 0.685667 0.985335 -76.634486 1.615092 77.847331 -7.732776 5.183474 15.386069 -0.143404 -9.941854 10.317678 6.751254 17.414890 -19.750770 0.000000 -0.000000 0.000000 -3.016051 2.796764 -17.328558 -2.307492 -0.833326 31.035938 6.081678 -8.443323 -11.888727 0.000000 -0.000000 0.000000 -0.953993 -6.540442 6.477396 1.700993 -4.499972 1.460942 -0.618666 -4.272528 4.002477 4.185056 0.305861 5.499642 0.196283 0.750761 -2.628372 -20.311153 -0.312018 -0.913392 -55.561626 -14.627387 10.004823 4.299883 -21.862531 12.180347 -4.445798 2.114273 -1.977702 17.106833 -5.580271 -4.509886 62.521836 -0.642970 17.284533 -10.347580 28.346425 7.464925 11.303651 -2.517199 -4.076579 
-1.594699 0.683631 0.984981 -75.224208 1.484728 78.080009 -7.112409 5.693290 15.643440 -0.561650 -11.025394 11.281517 5.947554 15.671868 -20.662834 0.000000 -0.000000 0.000000 -2.324401 3.058225 -16.936467 -2.373598 2.313565 22.493376 7.305151 -6.331063 -11.050767 0.000000 -0.000000 0.000000 -1.593328 -7.108436 5.936022 2.138173 -5.209905 2.269115 -0.525704 -4.853916 4.088549 4.587055 1.224985 5.445225 -0.010157 1.402952 -2.699593 -20.923398 -0.273664 -0.797735 -55.259535 -15.613794 10.083216 4.188554 -21.426447 12.671606 -4.213455 1.207553 -2.707567 17.459647 -6.329286 -4.513891 61.769581 -0.586804 17.207482 -10.715947 27.770445 7.936687 12.322056 -2.586196 -4.448096 
-1.604674 0.681792 0.983886 -73.815372 1.235515 78.444964 -6.661028 5.718921 15.713000 -1.091128 -11.510094 12.216605 5.037797 14.431538 -21.098339 0.000000 -0.000000 0.000000 -1.952360 3.676355 -16.646655 -3.144821 4.561565 14.886583 8.747781 -4.403102 -9.916466 0.000000 -0.000000 0.000000 -1.865932 -7.249752 5.965593 2.073253 -5.779186 2.101805 -0.463332 -5.345089 4.084622 4.573811 1.193945 5.451960 0.228908 1.758828 -2.512432 -21.050706 -0.412946 -0.556575 -55.503792 -16.060097 10.316446 4.364778 -21.308212 12.440129 -4.341155 0.758524 -2.574141 17.171995 -6.755893 -4.581605 61.752614 -1.163621 17.076352 -10.873779 26.970049 8.001320 12.356477 -2.773770 -4.289893 
-1.615755 0.680163 0.983385 -72.421958 0.917838 78.956440 -6.229650 5.503343 15.737836 -1.821004 -11.836484 13.001635 4.100692 13.478525 -21.624944 0.000000 -0.000000 0.000000 -1.672792 4.325308 -16.388866 -4.058461 6.555339 8.767994 9.355689 -3.369232 -10.014180 0.000000 -0.000000 0.000000 -2.257151 -7.360995 5.376925 2.026819 -6.145212 2.616022 -0.392714 -5.873511 4.046407 4.874483 1.590237 5.314534 0.021324 2.111313 -2.845219 -21.553732 -0.014080 -0.586978 -55.593601 -16.508003 10.633521 4.488508 -21.318752 12.197563 -4.641315 0.306102 -2.775030 17.185070 -7.528214 -4.575267 61.078572 -0.939912 17.381329 -10.059667 25.886846 8.932014 12.578729 -2.832366 -4.335142 
-1.626735 0.678201 0.982995 -70.547767 0.657839 79.459927 -5.880494 5.062059 15.704017 -2.346852 -12.797382 13.908247 3.374947 12.380721 -21.392032 0.000000 -0.000000 0.000000 -1.644289 4.902843 -16.205742 -4.658091 7.610614 4.856648 9.626315 -2.652752 -10.229686 0.000000 -0.000000 0.000000 -2.449723 -7.679741 5.451668 1.941778 -6.513738 2.437749 -0.388566 -6.128754 3.770740 4.803441 1.597077 5.359102 0.097943 2.446885 -3.102225 -21.804777 0.179950 -0.422094 -55.991123 -16.631214 10.926778 4.477837 -21.234542 12.324633 -5.184612 0.032875 -3.210597 17.040909 -8.194829 -4.813917 60.729016 -1.530355 17.264895 -9.817698 25.480472 9.797781 13.502147 -3.339899 -4.143502 
-1.638804 0.676226 0.982909 -68.519869 0.364809 79.777379 -5.603729 4.447831 16.083022 -2.789439 -13.864713 14.433671 2.934399 11.784061 -20.819382 0.000000 -0.000000 0.000000 -1.927788 5.904657 -15.735362 -4.711343 9.844669 3.007262 10.268034 -1.183055 -9.816113 0.000000 -0.000000 0.000000 -2.666060 -7.794773 4.927544 1.816570 -6.800818 3.006122 -0.472487 -6.519934 3.732238 4.737125 1.667587 5.220211 0.111828 2.670981 -3.391913 -21.950856 -0.071592 -0.226983 -56.420470 -16.701914 11.368385 4.578853 -20.783740 12.080063 -6.234079 -0.092382 -3.891807 16.966062 -8.287305 -4.873815 60.557119 -1.716356 17.247184 -10.142149 25.024877 10.057538 15.114470 -4.106180 -3.625040 
-1.652314 0.674329 0.983186 -65.888685 0.316340 80.046024 -4.941279 4.163420 16.692776 -3.000009 -16.082481 14.819449 2.627914 11.407192 -20.188449 0.000000 -0.000000 0.000000 -2.131185 6.909942 -15.423576 -4.068136 11.788821 4.299925 10.155793 -0.375768 -10.462750 0.000000 -0.000000 0.000000 -2.853887 -8.319943 4.723122 1.995057 -6.996439 3.240524 -0.493192 -6.799871 3.727593 4.898330 2.296991 4.896678 -0.384207 3.375053 -3.656091 -22.314011 -0.136777 -0.104716 -56.700518 -16.646622 11.720137 4.208327 -20.351595 12.562043 -6.663433 0.037856 -4.188749 16.954627 -8.731406 -5.022769 60.038462 -2.066829 17.198994 -9.929292 25.116574 10.287322 15.147037 -4.053389 -3.978009 
-1.667762 0.672429 0.983988 -63.054245 0.366517 80.335365 -3.892271 3.527999 17.508531 -3.479350 -17.952747 14.760793 2.275203 10.843490 -19.328111 0.000000 -0.000000 0.000000 -2.135422 8.019621 -14.694098 -3.333001 13.480674 6.308759 10.010898 0.299944 -10.890925 0.000000 -0.000000 0.000000 -2.837026 -8.539536 4.221721 2.157973 -7.067717 3.756559 -0.537811 -7.049419 3.519093 5.078721 3.222980 4.418794 -0.989472 3.969832 -3.783211 -22.740650 -0.337163 0.118616 -56.859874 -16.442482 12.220249 3.464165 -19.644900 13.260063 -7.233916 -0.011722 -4.433371 17.012033 -9.130724 -5.075237 59.465399 -2.356070 17.096835 -9.628992 25.032728 10.481327 14.809595 -3.717870 -4.759717 
-1.684063 0.670301 0.985245 -59.666699 0.439248 80.762683 -2.817526 2.759350 17.708047 -3.928139 -19.555738 15.412646 1.835774 10.089602 -18.147241 0.000000 -0.000000 0.000000 -2.060861 8.785720 -13.133541 -3.090080 15.432984 6.806660 9.749151 1.068028 -10.954123 0.000000 -0.000000 0.000000 -2.975959 -8.720191 3.590068 2.418417 -7.427133 4.052752 -0.405229 -7.288649 3.383363 5.181963 4.480162 4.140572 -1.655888 5.385017 -3.897099 -23.056549 -0.421401 0.381368 -57.084858 -16.059452 12.600627 2.458968 -18.882827 14.523032 -8.767997 0.223036 -5.045712 16.881502 -9.490355 -5.017601 58.919898 -2.311548 17.152173 -9.458607 24.983424 11.292242 16.024782 -4.086675 -5.091813 
-1.700316 0.668213 0.987230 -56.078511 0.610317 81.232036 -1.464212 1.790930 17.213846 -4.907133 -20.415189 17.188107 1.428472 8.915234 -16.486965 0.000000 -0.000000 0.000000 -2.260997 8.648276 -12.085893 -2.678011 16.006433 7.022267 9.812010 1.315682 -9.804881 0.000000 -0.000000 0.000000 -2.823670 -8.581462 3.169519 2.580990 -7.721035 4.240757 -0.262620 -7.403376 3.042381 5.021377 5.870591 3.619430 -2.215612 6.844320 -3.898148 -23.293333 -0.695466 0.798686 -57.387657 -15.749608 12.845921 1.793476 -18.286876 15.419060 -9.514313 0.418560 -5.447860 16.950011 -9.569525 -4.729063 58.409986 -2.143923 16.892728 -9.474876 24.816360 11.558098 16.449907 -4.243590 -5.125806 
-1.717614 0.665216 0.991423 -52.914431 0.646288 81.242288 -0.232784 1.402544 17.016768 -5.772668 -20.923769 19.124879 1.265218 8.187539 -15.063392 0.000000 -0.000000 0.000000 -2.577233 8.092139 -10.692453 -2.013528 15.213648 7.935051 9.337239 0.724337 -10.295327 0.000000 -0.000000 0.000000 -2.745641 -8.227270 3.125709 2.629243 -7.620376 4.336817 -0.105771 -7.320745 2.850634 4.997504 7.546856 2.928916 -2.855573 8.795442 -3.820927 -23.625035 -0.632898 0.901719 -57.426861 -15.161536 12.808599 1.292498 -17.952296 16.386418 -10.115183 0.470632 -5.482824 17.072121 -9.478167 -4.444170 57.746696 -1.750135 16.555149 -9.221133 24.504527 12.114542 17.222129 -4.456258 -4.801105 
